<svg xmlns="http://www.w3.org/2000/svg" data-name="Layer 1" viewBox="0 0 100 125" x="0px" y="0px"><title>A3</title><path d="M12.88574,46.8335h26.0625a7.89435,7.89435,0,0,0,7.88526-7.88575V12.88525A7.89393,7.89393,0,0,0,38.94824,5H12.88574A7.89434,7.89434,0,0,0,5,12.88525v26.0625A7.89477,7.89477,0,0,0,12.88574,46.8335ZM10,12.88525A2.88877,2.88877,0,0,1,12.88574,10h26.0625a2.88867,2.88867,0,0,1,2.88526,2.88525v26.0625a2.88878,2.88878,0,0,1-2.88526,2.88575H12.88574A2.88888,2.88888,0,0,1,10,38.94775ZM61.05225,46.8335h26.0625A7.89435,7.89435,0,0,0,95,38.94775V12.88525A7.89393,7.89393,0,0,0,87.11475,5H61.05225A7.89393,7.89393,0,0,0,53.167,12.88525v26.0625A7.89435,7.89435,0,0,0,61.05225,46.8335ZM58.167,12.88525A2.88867,2.88867,0,0,1,61.05225,10h26.0625A2.88866,2.88866,0,0,1,90,12.88525v26.0625a2.88877,2.88877,0,0,1-2.88525,2.88575H61.05225A2.88878,2.88878,0,0,1,58.167,38.94775ZM12.88574,95h26.0625a7.89393,7.89393,0,0,0,7.88526-7.88525V61.05225a7.89435,7.89435,0,0,0-7.88526-7.88575H12.88574A7.89477,7.89477,0,0,0,5,61.05225v26.0625A7.89434,7.89434,0,0,0,12.88574,95ZM10,61.05225a2.88888,2.88888,0,0,1,2.88574-2.88575h26.0625a2.88878,2.88878,0,0,1,2.88526,2.88575v26.0625A2.88867,2.88867,0,0,1,38.94824,90H12.88574A2.88877,2.88877,0,0,1,10,87.11475ZM61.05225,95h26.0625A7.89393,7.89393,0,0,0,95,87.11475V61.05225a7.89435,7.89435,0,0,0-7.88525-7.88575H61.05225A7.89435,7.89435,0,0,0,53.167,61.05225v26.0625A7.89393,7.89393,0,0,0,61.05225,95ZM58.167,61.05225a2.88878,2.88878,0,0,1,2.88526-2.88575h26.0625A2.88877,2.88877,0,0,1,90,61.05225v26.0625A2.88866,2.88866,0,0,1,87.11475,90H61.05225A2.88867,2.88867,0,0,1,58.167,87.11475Z"/><text x="0" y="115" fill="#000000" font-size="5px" font-weight="bold" font-family="'Helvetica Neue', Helvetica, Arial-Unicode, Arial, Sans-serif">Created by Hrbon</text><text x="0" y="120" fill="#000000" font-size="5px" font-weight="bold" font-family="'Helvetica Neue', Helvetica, Arial-Unicode, Arial, Sans-serif">from the Noun Project</text></svg>